<svg width="129" height="18" viewBox="0 0 129 18" fill="none" xmlns="http://www.w3.org/2000/svg">
<path opacity="0.7" d="M4.716 4.432H1.092V13H2.172V9.568H4.716C6.576 9.568 7.62 8.596 7.62 6.988C7.62 5.404 6.576 4.432 4.716 4.432ZM4.536 8.608H2.172V5.392H4.536C6 5.392 6.528 6.004 6.528 7C6.528 7.996 6 8.608 4.536 8.608ZM11.463 6.796C9.567 6.796 8.487 8.176 8.487 9.976C8.487 11.776 9.567 13.156 11.463 13.156C13.347 13.156 14.439 11.776 14.439 9.976C14.439 8.176 13.347 6.796 11.463 6.796ZM11.463 12.268C10.119 12.268 9.507 11.164 9.507 9.976C9.507 8.8 10.119 7.684 11.463 7.684C12.795 7.684 13.419 8.8 13.419 9.976C13.419 11.164 12.795 12.268 11.463 12.268ZM18.5629 8.812L17.5309 11.92H17.2909L16.5589 6.952H15.5749L16.4509 13H18.0349L19.0909 9.82H19.3189L20.3749 13H21.9349L22.8229 6.952H21.8389L21.1309 11.92H20.8909L19.8829 8.812H18.5629ZM29.5718 9.616C29.5478 8.128 28.6598 6.796 26.8717 6.796C25.0358 6.796 23.9558 8.056 23.9558 9.916C23.9558 11.764 25.0118 13.156 26.8958 13.156C28.3958 13.156 29.2598 12.364 29.4638 11.332H28.4318C28.2518 11.908 27.7358 12.268 26.8958 12.268C25.6478 12.268 24.9878 11.392 24.9638 9.964H29.5718V9.616ZM26.8478 7.684C27.8798 7.684 28.4438 8.356 28.5158 9.112H25.0238C25.1678 8.344 25.7438 7.684 26.8478 7.684ZM34.5558 6.952H34.1358C33.2598 6.952 32.6838 7.312 32.3838 7.684H32.1438V6.952H31.1598V13H32.1798V9.976C32.1798 8.656 32.8998 7.912 34.0878 7.912H34.5558V6.952ZM41.1264 9.616C41.1024 8.128 40.2144 6.796 38.4264 6.796C36.5904 6.796 35.5104 8.056 35.5104 9.916C35.5104 11.764 36.5664 13.156 38.4504 13.156C39.9504 13.156 40.8144 12.364 41.0184 11.332H39.9864C39.8064 11.908 39.2904 12.268 38.4504 12.268C37.2024 12.268 36.5424 11.392 36.5184 9.964H41.1264V9.616ZM38.4024 7.684C39.4344 7.684 39.9984 8.356 40.0704 9.112H36.5784C36.7224 8.344 37.2984 7.684 38.4024 7.684ZM47.1065 4.276V7.612H46.8665C46.5305 7.18 45.9785 6.796 45.0305 6.796C43.3505 6.796 42.3425 8.164 42.3425 9.976C42.3425 11.776 43.3505 13.156 45.0305 13.156C45.9785 13.156 46.5665 12.76 46.9025 12.34H47.1425V13H48.1265V4.276H47.1065ZM45.2225 12.268C43.9985 12.268 43.3625 11.32 43.3625 9.976C43.3625 8.632 43.9985 7.684 45.2225 7.684C46.5665 7.684 47.1185 8.788 47.1185 9.976C47.1185 11.152 46.5665 12.268 45.2225 12.268ZM53.4371 4.276V13H54.4211V12.34H54.6611C54.9971 12.76 55.5851 13.156 56.5331 13.156C58.2131 13.156 59.2211 11.776 59.2211 9.976C59.2211 8.164 58.2131 6.796 56.5331 6.796C55.5851 6.796 55.0331 7.18 54.6971 7.612H54.4571V4.276H53.4371ZM56.3411 12.268C54.9971 12.268 54.4451 11.152 54.4451 9.976C54.4451 8.788 54.9971 7.684 56.3411 7.684C57.5651 7.684 58.2011 8.632 58.2011 9.976C58.2011 11.32 57.5651 12.268 56.3411 12.268ZM62.4519 15.4L66.0999 6.952H65.0079L63.3279 10.936H63.0279L61.2039 6.952H60.0999L62.6439 12.46L61.4079 15.4H62.4519Z" fill="#050038"/>
<path d="M79.8504 7.99199C79.8504 9.54298 79.4634 10.7634 78.681 11.6533C77.8986 12.5433 76.8217 12.984 75.4336 12.984C74.0118 12.984 72.9181 12.5433 72.1526 11.6703C71.3786 10.7973 71 9.55993 71 7.96656C71 6.39015 71.387 5.16122 72.161 4.29673C72.9181 3.44072 74.0202 3 75.442 3C76.8217 3 77.907 3.44072 78.681 4.33063C79.4634 5.21207 79.8504 6.43252 79.8504 7.99199ZM72.1778 7.99199C72.1778 9.30567 72.4554 10.3058 73.0107 10.9838C73.5659 11.6618 74.3736 12.0008 75.4336 12.0008C76.502 12.0008 77.3097 11.6618 77.8481 10.9838C78.395 10.3058 78.6642 9.30567 78.6642 7.99199C78.6642 6.68679 78.395 5.69517 77.8481 5.02561C77.3097 4.34758 76.502 4.01704 75.442 4.01704C74.3736 4.01704 73.5659 4.35606 73.0107 5.03409C72.4554 5.71212 72.1778 6.69526 72.1778 7.99199Z" fill="#6EB935"/>
<path d="M86.7741 12.8563V8.15243C86.7741 7.55915 86.6395 7.11843 86.3703 6.82179C86.1011 6.53363 85.6804 6.38107 85.1083 6.38107C84.3512 6.38107 83.7959 6.58448 83.451 6.99977C83.0977 7.41507 82.921 8.0931 82.921 9.03386V12.8478H81.8273V5.57591H82.7191L82.8957 6.56753H82.9462C83.1734 6.21157 83.4846 5.93188 83.8885 5.73695C84.2923 5.54201 84.7466 5.44031 85.2429 5.44031C86.1095 5.44031 86.7657 5.65219 87.2032 6.07596C87.6406 6.49973 87.8594 7.17776 87.8594 8.10157V12.8478H86.7741V12.8563Z" fill="#6EB935"/>
<path d="M93.1596 12.9911C92.0911 12.9911 91.2498 12.6605 90.6357 12.0079C90.0216 11.3553 89.7103 10.4485 89.7103 9.27886C89.7103 8.10926 89.9963 7.17697 90.5684 6.48199C91.1405 5.79549 91.9145 5.448 92.8735 5.448C93.7821 5.448 94.4972 5.74464 95.0188 6.34639C95.5488 6.94814 95.8096 7.73635 95.8096 8.71949V9.41447H90.8376C90.8629 10.2705 91.0732 10.9146 91.477 11.3553C91.8808 11.796 92.4529 12.0164 93.1932 12.0164C93.9672 12.0164 94.7412 11.8554 95.4984 11.5248V12.508C95.1114 12.6775 94.7496 12.7961 94.4047 12.8724C94.0682 12.9487 93.6475 12.9911 93.1596 12.9911ZM92.8651 6.37181C92.2846 6.37181 91.8219 6.55827 91.477 6.93966C91.1321 7.32105 90.9302 7.84653 90.8713 8.51608H94.6487C94.6487 7.8211 94.4972 7.28715 94.186 6.92271C93.8747 6.55827 93.4372 6.37181 92.8651 6.37181Z" fill="#6EB935"/>
<path d="M100.807 12.8577H99.6881V4.15353H96.6426V3.15344H103.861V4.15353H100.807V12.8577Z" fill="#6EB935"/>
<path d="M108.437 5.448C108.757 5.448 109.043 5.47342 109.304 5.52428L109.153 6.5498C108.85 6.48199 108.589 6.44809 108.362 6.44809C107.781 6.44809 107.277 6.6854 106.864 7.1685C106.452 7.64312 106.242 8.24487 106.242 8.9568V12.8555H105.148V5.5836H106.048L106.174 6.93119H106.225C106.494 6.45657 106.814 6.09213 107.192 5.83786C107.571 5.57513 107.983 5.448 108.437 5.448Z" fill="#6EB935"/>
<path d="M111.677 5.58398V10.3048C111.677 10.898 111.811 11.3388 112.08 11.6354C112.35 11.9236 112.77 12.0761 113.342 12.0761C114.099 12.0761 114.646 11.8642 115 11.4489C115.353 11.0336 115.521 10.3556 115.521 9.41485V5.59246H116.615V12.8643H115.715L115.555 11.8897H115.496C115.269 12.2456 114.958 12.5253 114.562 12.7118C114.167 12.8982 113.712 12.9999 113.199 12.9999C112.324 12.9999 111.66 12.788 111.222 12.3728C110.785 11.949 110.566 11.2794 110.566 10.3556V5.60093H111.677V5.58398Z" fill="#6EB935"/>
<path d="M123.589 10.8737C123.589 11.5517 123.337 12.0687 122.84 12.4416C122.336 12.8061 121.637 12.9925 120.729 12.9925C119.77 12.9925 119.021 12.84 118.491 12.5349V11.5093C118.836 11.6873 119.206 11.8229 119.61 11.9246C120.005 12.0263 120.392 12.0772 120.762 12.0772C121.334 12.0772 121.772 11.984 122.083 11.7975C122.395 11.611 122.546 11.3314 122.546 10.9584C122.546 10.6787 122.428 10.433 122.184 10.2296C121.94 10.0261 121.461 9.78883 120.754 9.51762C120.081 9.26336 119.601 9.043 119.324 8.85654C119.038 8.67008 118.827 8.4582 118.693 8.21241C118.558 7.9751 118.482 7.68694 118.482 7.3564C118.482 6.76313 118.718 6.29698 119.198 5.94949C119.677 5.61048 120.333 5.4325 121.166 5.4325C121.94 5.4325 122.706 5.59353 123.446 5.90712L123.059 6.80551C122.336 6.50887 121.679 6.35631 121.091 6.35631C120.569 6.35631 120.182 6.44106 119.921 6.60209C119.66 6.76313 119.526 6.99196 119.526 7.28012C119.526 7.47506 119.576 7.64457 119.677 7.78017C119.778 7.91578 119.938 8.05138 120.157 8.17004C120.375 8.29717 120.796 8.47515 121.419 8.70399C122.277 9.01758 122.857 9.33116 123.152 9.65323C123.438 9.99224 123.589 10.3906 123.589 10.8737Z" fill="#6EB935"/>
<path d="M127.703 12.0751C127.897 12.0751 128.082 12.0582 128.267 12.0328C128.443 12.0073 128.587 11.9734 128.696 11.9395V12.7786C128.578 12.8379 128.401 12.8803 128.174 12.9227C127.947 12.9566 127.737 12.982 127.552 12.982C126.155 12.982 125.457 12.2446 125.457 10.7615V6.43055H124.422V5.8966L125.457 5.43893L125.92 3.88794H126.551V5.57454H128.645V6.43055H126.551V10.7106C126.551 11.1513 126.652 11.4819 126.862 11.7192C127.055 11.965 127.341 12.0751 127.703 12.0751Z" fill="#6EB935"/>
</svg>
